# xmcd CD database file
#
# Track frame offsets:
#	150
#	14307
#	30252
#	46064
#	60442
#	74342
#	91784
#	107680
#	123206
#	137478
#	155586
#	168083
#
# Disc length: 2426 seconds
#
# Revision: 0
# Processed by: cddbd v1.5.2PL0 Copyright (c) Steve Scherf et al.
# Submitted via: CDex 1.50Beta7
#
DISCID=8509780c
DTITLE=Truck Stop - Auf Achse
DYEAR=1978
DGENRE=Country
TTITLE0=Nashville Tennessee
TTITLE1=Hannas Mann
TTITLE2=Ich rauch zuviel
TTITLE3=Der Tramp
TTITLE4=Der letzte Trip
TTITLE5=Amerika
TTITLE6=Kopf oder Zahl
TTITLE7=Jeden Tag in einer anderen Stadt
TTITLE8=Der Koenig von der Autobahn
TTITLE9=Sie will zurueck nach Muenchen
TTITLE10=Die Zeiten
TTITLE11=Jetzt ist Schluss
EXTD=YEAR: 1978
EXTT0=
EXTT1=
EXTT2=
EXTT3=
EXTT4=
EXTT5=
EXTT6=
EXTT7=
EXTT8=
EXTT9=
EXTT10=
EXTT11=
PLAYORDER=
